<?xml version="1.0" encoding="UTF-8" standalone="no"?><!DOCTYPE svg PUBLIC "-//W3C//DTD SVG 1.1//EN" "http://www.w3.org/Graphics/SVG/1.1/DTD/svg11.dtd"><svg width="100%" height="100%" viewBox="0 0 512 512" version="1.1" xmlns="http://www.w3.org/2000/svg" xmlns:xlink="http://www.w3.org/1999/xlink" xml:space="preserve" xmlns:serif="http://www.serif.com/" style="fill-rule:evenodd;clip-rule:evenodd;stroke-linejoin:round;stroke-miterlimit:1.41421;"><g><rect x="361" y="482" width="30" height="30" style="fill:url(#_Linear1);"/><rect x="0" y="482" width="30" height="30" style="fill:url(#_Linear2);"/><path d="M331,222l0,170l-271,0l0,-170l-60,0l0,230l391,0l0,-230l-60,0Z" style="fill:url(#_Linear3);fill-rule:nonzero;"/><path d="M271,292l-151,0c-16.542,0 -30,13.458 -30,30l0,40l211,0l0,-40c0,-16.542 -13.458,-30 -30,-30Z" style="fill:url(#_Linear4);fill-rule:nonzero;"/><path d="M90,132l0,138.072c8.833,-5.123 19.075,-8.072 30,-8.072l151,0c10.925,0 21.167,2.949 30,8.072l0,-138.072l-211,0Z" style="fill:url(#_Linear5);fill-rule:nonzero;"/><rect x="421" y="192" width="30" height="320" style="fill:url(#_Linear6);"/><path d="M499.756,0l-127.512,0l-12.244,162l152,0l-12.244,-162Z" style="fill:url(#_Linear7);fill-rule:nonzero;"/></g><defs><linearGradient id="_Linear1" x1="0" y1="0" x2="1" y2="0" gradientUnits="userSpaceOnUse" gradientTransform="matrix(512,0,0,512,0,256)"><stop offset="0" style="stop-color:#a133d5;stop-opacity:1"/><stop offset="1" style="stop-color:#d73f59;stop-opacity:1"/></linearGradient><linearGradient id="_Linear2" x1="0" y1="0" x2="1" y2="0" gradientUnits="userSpaceOnUse" gradientTransform="matrix(512,0,0,512,0,256)"><stop offset="0" style="stop-color:#a133d5;stop-opacity:1"/><stop offset="1" style="stop-color:#d73f59;stop-opacity:1"/></linearGradient><linearGradient id="_Linear3" x1="0" y1="0" x2="1" y2="0" gradientUnits="userSpaceOnUse" gradientTransform="matrix(512,0,0,512,0,256)"><stop offset="0" style="stop-color:#a133d5;stop-opacity:1"/><stop offset="1" style="stop-color:#d73f59;stop-opacity:1"/></linearGradient><linearGradient id="_Linear4" x1="0" y1="0" x2="1" y2="0" gradientUnits="userSpaceOnUse" gradientTransform="matrix(512,0,0,512,0,256)"><stop offset="0" style="stop-color:#a133d5;stop-opacity:1"/><stop offset="1" style="stop-color:#d73f59;stop-opacity:1"/></linearGradient><linearGradient id="_Linear5" x1="0" y1="0" x2="1" y2="0" gradientUnits="userSpaceOnUse" gradientTransform="matrix(512,0,0,512,0,256)"><stop offset="0" style="stop-color:#a133d5;stop-opacity:1"/><stop offset="1" style="stop-color:#d73f59;stop-opacity:1"/></linearGradient><linearGradient id="_Linear6" x1="0" y1="0" x2="1" y2="0" gradientUnits="userSpaceOnUse" gradientTransform="matrix(512,0,0,512,0,256)"><stop offset="0" style="stop-color:#a133d5;stop-opacity:1"/><stop offset="1" style="stop-color:#d73f59;stop-opacity:1"/></linearGradient><linearGradient id="_Linear7" x1="0" y1="0" x2="1" y2="0" gradientUnits="userSpaceOnUse" gradientTransform="matrix(512,0,0,512,0,256)"><stop offset="0" style="stop-color:#a133d5;stop-opacity:1"/><stop offset="1" style="stop-color:#d73f59;stop-opacity:1"/></linearGradient></defs></svg>