<?xml version="1.0" encoding="UTF-8" standalone="no"?><!DOCTYPE svg PUBLIC "-//W3C//DTD SVG 1.1//EN" "http://www.w3.org/Graphics/SVG/1.1/DTD/svg11.dtd"><svg width="100%" height="100%" viewBox="0 0 60 60" version="1.1" xmlns="http://www.w3.org/2000/svg" xmlns:xlink="http://www.w3.org/1999/xlink" xml:space="preserve" xmlns:serif="http://www.serif.com/" style="fill-rule:evenodd;clip-rule:evenodd;stroke-linejoin:round;stroke-miterlimit:1.41421;"><g><g><path d="M20.786,28.177c0.619,-0.546 1.244,-1.083 1.867,-1.621c0.09,4.532 0.402,9.165 0.419,9.358l9.934,0.061c-0.158,-1.733 -0.502,-9.634 -0.371,-13.633c0.125,-0.113 0.248,-0.236 0.361,-0.383c3.264,-4.231 5.609,-9.03 7.093,-14.159c0.931,-3.218 -3.948,-5.096 -4.885,-1.86c-1.101,3.803 -2.662,7.34 -4.794,10.612c-0.665,-0.427 -1.44,-0.702 -2.283,-0.771c-2.241,-0.181 -4.253,1.146 -5.041,3.131c-0.117,0.097 -0.233,0.196 -0.343,0.323c-0.055,0.063 -0.116,0.119 -0.171,0.181c-0.007,-2.686 -4.309,-3.607 -5.134,-0.631c-0.622,2.239 -0.699,4.563 -1.02,6.852c-0.357,2.544 2.273,4.388 4.368,2.54Z" style="fill:url(#_Linear1);fill-rule:nonzero;"/><path d="M18.347,13.248l0,0.045c0,0.621 0.503,1.124 1.124,1.124c0.607,0 1.098,-0.481 1.12,-1.082c0.652,1.297 1.901,2.27 3.447,2.5c2.024,0.302 3.935,-0.762 4.805,-2.496c0.025,0.599 0.516,1.079 1.121,1.079c0.62,0 1.124,-0.503 1.124,-1.124l0,-0.045c0.405,0 0.734,-0.328 0.734,-0.733l0,-2.938c0,-0.404 -0.329,-0.733 -0.734,-0.733l0,-0.045c0,-0.425 -0.24,-0.792 -0.588,-0.982c-0.799,-2.431 -3.088,-4.191 -5.782,-4.191c-2.695,0 -4.982,1.76 -5.782,4.191c-0.349,0.19 -0.587,0.557 -0.587,0.982l0,0.045c-0.405,0 -0.735,0.33 -0.735,0.733l0,2.938c-0.002,0.402 0.327,0.732 0.733,0.732Zm6.369,-8.5c2.087,0 3.874,1.297 4.607,3.125c-0.293,0.203 -0.486,0.541 -0.486,0.924l0,0.391c-0.654,-1.293 -1.9,-2.261 -3.441,-2.49c-2.022,-0.302 -3.93,0.759 -4.802,2.49l0,-0.391c0,-0.383 -0.192,-0.721 -0.485,-0.924c0.733,-1.828 2.52,-3.125 4.607,-3.125Z" style="fill:url(#_Linear2);fill-rule:nonzero;"/><rect x="0" y="37.671" width="59.201" height="17.903" style="fill:url(#_Linear3);"/><rect x="4.873" y="34.215" width="13.769" height="2.475" style="fill:url(#_Linear4);"/><rect x="39.363" y="34.215" width="13.77" height="2.475" style="fill:url(#_Linear5);"/></g></g><defs><linearGradient id="_Linear1" x1="0" y1="0" x2="1" y2="0" gradientUnits="userSpaceOnUse" gradientTransform="matrix(59.201,0,0,51.947,0,29.6005)"><stop offset="0" style="stop-color:#a133d5;stop-opacity:1"/><stop offset="1" style="stop-color:#d73f59;stop-opacity:1"/></linearGradient><linearGradient id="_Linear2" x1="0" y1="0" x2="1" y2="0" gradientUnits="userSpaceOnUse" gradientTransform="matrix(59.201,0,0,51.947,0,29.6005)"><stop offset="0" style="stop-color:#a133d5;stop-opacity:1"/><stop offset="1" style="stop-color:#d73f59;stop-opacity:1"/></linearGradient><linearGradient id="_Linear3" x1="0" y1="0" x2="1" y2="0" gradientUnits="userSpaceOnUse" gradientTransform="matrix(59.201,0,0,51.947,0,29.6005)"><stop offset="0" style="stop-color:#a133d5;stop-opacity:1"/><stop offset="1" style="stop-color:#d73f59;stop-opacity:1"/></linearGradient><linearGradient id="_Linear4" x1="0" y1="0" x2="1" y2="0" gradientUnits="userSpaceOnUse" gradientTransform="matrix(59.201,0,0,51.947,0,29.6005)"><stop offset="0" style="stop-color:#a133d5;stop-opacity:1"/><stop offset="1" style="stop-color:#d73f59;stop-opacity:1"/></linearGradient><linearGradient id="_Linear5" x1="0" y1="0" x2="1" y2="0" gradientUnits="userSpaceOnUse" gradientTransform="matrix(59.201,0,0,51.947,0,29.6005)"><stop offset="0" style="stop-color:#a133d5;stop-opacity:1"/><stop offset="1" style="stop-color:#d73f59;stop-opacity:1"/></linearGradient></defs></svg>